<svg width="80" height="80" viewBox="0 0 80 80" fill="none" xmlns="http://www.w3.org/2000/svg">
<rect width="80" height="80" rx="40" fill="#332B3A"/>
<path d="M19.56 58.24C18.888 58.24 18.36 58.032 17.976 57.616C17.592 57.2 17.4 56.688 17.4 56.08C17.4 55.824 17.48 55.504 17.64 55.12L29.88 26.224C30.104 25.712 30.44 25.264 30.888 24.88C31.368 24.464 31.96 24.256 32.664 24.256H33.144C33.88 24.256 34.472 24.464 34.92 24.88C35.368 25.264 35.704 25.712 35.928 26.224L48.168 55.12C48.328 55.504 48.408 55.824 48.408 56.08C48.408 56.688 48.216 57.2 47.832 57.616C47.448 58.032 46.92 58.24 46.248 58.24C45.256 58.24 44.568 57.792 44.184 56.896L41.064 49.408H24.744L21.624 56.896C21.24 57.792 20.552 58.24 19.56 58.24ZM26.424 45.424H39.384L32.904 29.824L26.424 45.424Z" fill="white"/>
<path d="M51.032 38.344C49.8373 38.344 48.7493 38.0027 47.768 37.32C46.808 36.6373 45.9653 35.7413 45.24 34.632C44.5147 33.5013 43.9067 32.2853 43.416 30.984L44.728 30.408C45.4107 32.0933 46.2213 33.4373 47.16 34.44C48.0987 35.4427 49.2187 35.944 50.52 35.944C51.3307 35.944 51.992 35.6987 52.504 35.208C53.016 34.696 53.272 34.088 53.272 33.384C53.272 32.9147 53.1973 32.4453 53.048 31.976C52.8987 31.5067 52.6853 31.08 52.408 30.696C52.152 30.2907 51.8213 29.9493 51.416 29.672L52.568 29.256C53.272 29.8107 53.8373 30.3653 54.264 30.92C54.6907 31.4533 54.9893 32.008 55.16 32.584C55.352 33.1387 55.448 33.736 55.448 34.376C55.448 35.6347 55.032 36.616 54.2 37.32C53.368 38.0027 52.312 38.344 51.032 38.344ZM49.72 30.728L48.568 28.424C50.1893 27.9973 51.416 27.5387 52.248 27.048C53.08 26.536 53.496 25.8853 53.496 25.096C53.496 24.4987 53.2933 24.04 52.888 23.72C52.504 23.4 52.0133 23.24 51.416 23.24C50.8187 23.24 50.168 23.3467 49.464 23.56C48.7813 23.752 48.0987 24.008 47.416 24.328L46.2 21.928C46.904 21.5867 47.5973 21.3413 48.28 21.192C48.984 21.0213 49.6347 20.936 50.232 20.936C50.9147 20.936 51.5547 21.0747 52.152 21.352C52.7707 21.608 53.3787 22.0667 53.976 22.728C54.4027 23.1973 54.7333 23.7413 54.968 24.36C55.2027 24.9573 55.32 25.5227 55.32 26.056C55.32 27.208 54.8827 28.1253 54.008 28.808C53.1547 29.4907 51.7253 30.1307 49.72 30.728ZM57.944 32.232C57.0053 32.232 56.088 32.008 55.192 31.56C54.296 31.0907 53.496 30.4933 52.792 29.768V29.256C53.3253 29.512 53.9013 29.7253 54.52 29.896C55.16 30.0667 55.8 30.152 56.44 30.152C57.1227 30.152 57.7733 30.056 58.392 29.864C59.0107 29.6507 59.5653 29.32 60.056 28.872V31.784C59.7147 31.9333 59.3733 32.0507 59.032 32.136C58.6907 32.2 58.328 32.232 57.944 32.232ZM61.912 41.192L59.832 39.656V22.376H62.232V41.192H61.912ZM57.208 23.24L55.96 21.416V21.064H64.952L66.232 22.952V23.24H57.208Z" fill="white"/>
</svg>
